DBRep_DrawableShape

CASCADE Topology V1, (c) Matra-Datavision
Locations 2
1
              1               0               0               0 
              0               1               0               0 
              0               0               1             -10 
2  1 -1 0
Curve2ds 20
7 0 0  3 113 111  0.88336281689585772 -0.5000000259739229  0.88335913290004464 -0.49662125916677441  0.88341064815280812 -0.49005050796332855  0.88360941824179617 -0.48062618065038726  0.88389287008407424 -0.47149189887204801  0.88416000848938214 -0.46255213043123483  0.88439783680668194 -0.45370025646497258  0.88456031060809792 -0.44494129275106353  0.88461526210166197 -0.43629565480366106  0.88451788594383329 -0.42767218436843735  0.8843319375462263 -0.41897748647832689  0.88409874961715285 -0.41016314632557782  0.88382424063120335 -0.4011510492737943  0.8835672454056871 -0.39186495603216032  0.88338146588888933 -0.38234216061230597  0.88334767665029101 -0.37234403992439918  0.88342545716023435 -0.36266674013488115  0.88359644513983815 -0.35332568780116841  0.88384031607907354 -0.34421506393172446  0.88411638615952304 -0.33528830595345555  0.88437293506022052 -0.3265051207454906  0.88455314070288926 -0.31782764056951202  0.88457915163100709 -0.3092674491154988  0.88443236009845883 -0.30061686218907779  0.88419286593567292 -0.29185840720832773  0.88391705147238231 -0.28296606626996351  0.88365934568514304 -0.27390669540234414  0.88346276824202141 -0.26462525720235464  0.8833592748480118 -0.25508528545326375  0.88335680528870741 -0.24509344803887784  0.88350027934044528 -0.23549857282047554  0.88372622515458532 -0.22616221180418883  0.88398415314156797 -0.21708505770305847  0.88421087624854189 -0.20822169593156051  0.88439737001942342 -0.19948320126672273  0.88451956039209645 -0.1908123083682447  0.88450459617792243 -0.18214479418665572  0.88437497140497812 -0.17337816841600814  0.88416533084358218 -0.16452881800195443  0.88392203807562164 -0.15560664003932861  0.88365431301067998 -0.14653626437423048  0.88344257507502266 -0.13722828327970421  0.88334613230866643 -0.12753054369338401  0.88337498923313751 -0.11748471441037815  0.8835226631182046 -0.10806057425506918  0.88376325670871125 -0.098874462666903223  0.88400780145439084 -0.089905317452275146  0.8842272501084516 -0.081012632066235046  0.88439260473858994 -0.072196519445066901  0.88447081209556133 -0.063459510133334965  0.8844153725327728 -0.054783638695358551  0.88426222733969861 -0.046070888469020833  0.88406652953248799 -0.03727222034252417  0.88383032756016466 -0.028320532758764321  0.88359448699587906 -0.019118398566673397  0.88341110804004341 -0.0096955018218745723  0.88334221546855674 0.00011543324019583672  0.88339697468694878 0.0098837773463084956  0.8835387383334451 0.019256395875386956  0.88375743388091466 0.028422419266806314  0.88401541409349049 0.037401653899144925  0.88426744143380698 0.04623849905222803  0.88445960448888561 0.054968197649155552  0.8845308072557887 0.063576973210279317  0.88442172917905204 0.072214006843874842  0.88420578313922094 0.080955206253720421  0.88394405096966833 0.089810715214821382  0.88369148596967528 0.098815252541045201  0.88349058321635521 0.10802615125537833  0.88337615304192951 0.11745557450274  0.88334308271619255 0.12736851011156805  0.88345398911262063 0.13706966182439601  0.88366677954181805 0.14645955641578759  0.8839243507095893 0.15561024898291798  0.88416665094281188 0.16452531351198618  0.88436709290505333 0.17329089225656621  0.8845128033268248 0.18196983553039789  0.88453701395559015 0.19060468943020822  0.88443190339724542 0.19933128481702586  0.88423759281936021 0.20814420502909717  0.88399704556293468 0.21703817265856012  0.88372781097046849 0.22604245566631015  0.88348867719990032 0.23529142862832772  0.88335747575137546 0.2448444679911391  0.88335841677557736 0.2549904209755825  0.88342903345954671 0.26459894202943679  0.88359583100584338 0.27390450128100219  0.88383855662078958 0.28296259740845181  0.88412053619401887 0.29184942534064745  0.8843829475159567 0.30061600407912226  0.8845567725193153 0.30930610771367689  0.88453091501400927 0.31795025836581586  0.88438763313327728 0.32661518890481633  0.88418619304521417 0.33536029399198297  0.88394159084622081 0.34424389266290456  0.8836783908064183 0.35337551562664915  0.88345951812341639 0.36276558397515096  0.88334295664065421 0.37248755811164136  0.88337616189799173 0.38245433453465555  0.88351868474107387 0.39189283470537217  0.88376621460119464 0.40109721931265951  0.88407901017509993 0.41008472939838797  0.88440546922948216 0.41892222355734887  0.88467786715674701 0.42764946272300086  0.8848229978628751 0.43628703752243514  0.88473591274775221 0.44489706025180675  0.88448274900031953 0.45360788980496292  0.88415779562531049 0.4624250560469419  0.88383243315799853 0.47139843170311407  0.88356502723706465 0.48058338244691462  0.88339831412846048 0.49005231057546461  0.88336037030694392 0.49662890421494382  0.88336281689585772 0.4999999740260771 
 0 4 3.9697463636363632e-05 1 7.9394927272727263e-05 1 0.0001190923909090909 1 0.00015878985454545453 1 0.00019848731818181814 1 0.00023818478181818179 1 0.00027788224545454544 1 0.00031757970909090905 1 0.00035727717272727267 1 0.00039697463636363629 1 0.00043667209999999996 1 0.00047636956363636358 1 0.0005160670272727272 1 0.00055576449090909087 1 0.00059546195454545443 1 0.00063515941818181811 1 0.00067485688181818178 1 0.00071455434545454534 1 0.00075425180909090902 1 0.00079394927272727258 1 0.00083364673636363625 1 0.00087334419999999992 1 0.00091304166363636349 1 0.00095273912727272716 1 0.00099243659090909072 1 0.0010321340545454544 1 0.0010718315181818181 1 0.0011115289818181817 1 0.0011512264454545454 1 0.0011909239090909089 1 0.0012306213727272725 1 0.0012703188363636362 1 0.0013100162999999999 1 0.0013497137636363636 1 0.001389411227272727 1 0.0014291086909090907 1 0.0014688061545454544 1 0.001508503618181818 1 0.0015482010818181817 1 0.0015878985454545452 1 0.0016275960090909088 1 0.0016672934727272725 1 0.0017069909363636362 1 0.0017466883999999998 1 0.0017863858636363635 1 0.001826083327272727 1 0.0018657807909090906 1 0.0019054782545454543 1 0.001945175718181818 1 0.0019848731818181814 1 0.0020245706454545451 1 0.0020642681090909088 1 0.0021039655727272725 1 0.0021436630363636361 1 0.0021833604999999998 1 0.0022230579636363635 1 0.0022627554272727272 1 0.0023024528909090908 1 0.0023421503545454541 1 0.0023818478181818177 1 0.0024215452818181814 1 0.0024612427454545451 1 0.0025009402090909088 1 0.0025406376727272724 1 0.0025803351363636361 1 0.0026200325999999998 1 0.0026597300636363634 1 0.0026994275272727271 1 0.0027391249909090908 1 0.002778822454545454 1 0.0028185199181818177 1 0.0028582173818181814 1 0.002897914845454545 1 0.0029376123090909087 1 0.0029773097727272724 1 0.0030170072363636361 1 0.0030567046999999997 1 0.0030964021636363634 1 0.0031360996272727271 1 0.0031757970909090903 1 0.003215494554545454 1 0.0032551920181818177 1 0.0032948894818181813 1 0.003334586945454545 1 0.0033742844090909087 1 0.0034139818727272724 1 0.003453679336363636 1 0.0034933767999999997 1 0.0035330742636363634 1 0.003572771727272727 1 0.0036124691909090903 1 0.003652166654545454 1 0.0036918641181818176 1 0.0037315615818181813 1 0.003771259045454545 1 0.0038109565090909086 1 0.0038506539727272723 1 0.003890351436363636 1 0.0039300488999999992 1 0.0039697463636363629 1 0.0040094438272727266 1 0.0040491412909090902 1 0.0040888387545454539 1 0.0041285362181818176 1 0.0041682336818181813 1 0.0042079311454545449 1 0.0042476286090909086 1 0.0042873260727272723 1 0.004327023536363636 1 0.0043667209999999996 4
7 0 0  3 113 111  6.2831854462002354 0.0013114366212211492  6.2639441018979802 0.0013127439392660197  6.2256530117882143 0.0012872703580603135  6.1685825764838 0.0012111130347059538  6.1116611827396881 0.0011350911429870148  6.0547016416216355 0.0011261106761423386  5.9973383116245564 0.0011561397355031716  5.9399021421050424 0.0012082258244565046  5.8825575344240377 0.0012324538391954151  5.8255516626804233 0.0012036759574230982  5.7686871263394348 0.0011587644364785847  5.711789229033764 0.0011240966318005895  5.6546275891027875 0.0011480792044887818  5.5971837661667472 0.0012154092972615422  5.5397953563094688 0.0012996065777633021  5.4828839264848774 0.0013197745328939637  5.4259382077018543 0.0012904402502466998  5.3688554123701202 0.001256549608100429  5.3117206765958258 0.0012276899027514835  5.254577353297595 0.0012138819537636193  5.1974912594193832 0.0012152511441893296  5.1404989102983265 0.0012261094950137812  5.0837254349441352 0.0012286373409713138  5.0267814477422679 0.0012172283768239168  4.9697133020526074 0.0012126780315338287  4.9125776221197235 0.0012223553343596331  4.8554307398159473 0.0012477976054144062  4.7983322872218253 0.0012822945792091149  4.7413165617059807 0.0013129901011307784  4.6844789010030112 0.0013160476281914972  4.6271614025483778 0.0012372515845837711  4.5697099937874217 0.0011628218838449825  4.5124423124607347 0.0011249590150746536  4.4555100132695298 0.0011506408384925728  4.3986343247929902 0.0011995342125642014  4.341675593179696 0.0012360420031764625  4.2843769352397416 0.0012280025639078295  4.2269598006929083 0.0011788431165289976  4.1695784489410741 0.0011443168645230957  4.1125459048387931 0.0011390773453652256  4.0556626497306496 0.0011984394666219092  3.9986541792437755 0.0012734414627178238  3.9413079298924014 0.0013211745835540677  3.8835928868182545 0.0013048376063322232  3.8265195319867331 0.0012360040498688529  3.7695758967476021 0.0011560909672862277  3.7127099029680917 0.0011305278210412342  3.6554457846824864 0.0011557558798817524  3.5980320497845284 0.0012056922246352494  3.5406497710802949 0.0012451365661304105  3.4835550770274697 0.0012235820754936469  3.4266992208226768 0.0011782867684010144  3.3698460012937907 0.0011331163576048346  3.3128306242103935 0.0011387564572837858  3.2554301483862975 0.0011958099557743821  3.1980025332155577 0.0012783659653243288  3.1409371959086325 0.0013233550090237115  3.0840683399121183 0.0012968106466973211  3.0270010554744715 0.0012656094934792928  2.9698924595531757 0.0012349864830148865  2.9127611428231379 0.0012179516208520825  2.8556760907358978 0.0012162027298063133  2.7986677603062375 0.0012253696067119303  2.7418705161114012 0.0012325283271040939  2.6850000431364442 0.0012214196756326896  2.6279612897573728 0.0012126582015744051  2.5708492457353795 0.0012167535149180313  2.5137101540159215 0.0012371083208858322  2.4566157137983797 0.0012700738250093116  2.3995799292516331 0.001301395041883149  2.3427924517030281 0.0013211815034344183  2.2856211349297855 0.0012588216650034228  2.2282096721701663 0.0011828213634709637  2.1708641947662191 0.0011352660375557367  2.1138782438655568 0.0011431885903145397  2.0570201317006997 0.0011868216697180527  2.0001435125371838 0.0012240120451768844  1.94299763888149 0.00123214186795943  1.8856024507851981 0.001182108078939668  1.8281874596282002 0.0011368422246318965  1.7710189538157213 0.0011195014572496385  1.714176318786615 0.0011649397001210712  1.6572261684737493 0.0012477231027876534  1.6000815447479191 0.0013110755438322796  1.5423757071361246 0.0013099512755572848  1.4849937682363361 0.0013059738451979474  1.4277757816505288 0.0012938337974886496  1.3706753250033819 0.0012762698047352008  1.3136199234712542 0.0012558677148344101  1.2565502464227158 0.0012367957535510594  1.1994008663147948 0.0012247887753510096  1.1421356774149283 0.0012245067498593222  1.0852477914566165 0.0011799881404898739  1.0283982577498376 0.0011308600653080769  0.97148954817884814 0.0011197210107813721  0.91416516544417625 0.001169742418003331  0.85672128580408202 0.001251974319520129  0.7994899922675458 0.0013211239958182532  0.74267754422219667 0.0013031792723780173  0.68579313675753806 0.0012608285479348035  0.62890856543146967 0.0012006908321473817  0.57198129023105881 0.0011389011341649388  0.51501001589510764 0.0010858604067061454  0.45799042628573083 0.0010498952706073962  0.40092433867330968 0.0010359781060499079  0.3438144505830607 0.0010459013742207751  0.2866629117119377 0.0010781967873351927  0.22946884144155177 0.0011282540290755163  0.17222631789226739 0.0011885334267565679  0.11492185335577787 0.0012488365512199125  0.057533990663620749 0.0012968741322484289  0.019195099333347621 0.0013110880375873984  1.3902064921467172e-07 0.0013114366212211492 
 0 4 3.9697463636363632e-05 1 7.9394927272727263e-05 1 0.0001190923909090909 1 0.00015878985454545453 1 0.00019848731818181814 1 0.00023818478181818179 1 0.00027788224545454544 1 0.00031757970909090905 1 0.00035727717272727267 1 0.00039697463636363629 1 0.00043667209999999996 1 0.00047636956363636358 1 0.0005160670272727272 1 0.00055576449090909087 1 0.00059546195454545443 1 0.00063515941818181811 1 0.00067485688181818178 1 0.00071455434545454534 1 0.00075425180909090902 1 0.00079394927272727258 1 0.00083364673636363625 1 0.00087334419999999992 1 0.00091304166363636349 1 0.00095273912727272716 1 0.00099243659090909072 1 0.0010321340545454544 1 0.0010718315181818181 1 0.0011115289818181817 1 0.0011512264454545454 1 0.0011909239090909089 1 0.0012306213727272725 1 0.0012703188363636362 1 0.0013100162999999999 1 0.0013497137636363636 1 0.001389411227272727 1 0.0014291086909090907 1 0.0014688061545454544 1 0.001508503618181818 1 0.0015482010818181817 1 0.0015878985454545452 1 0.0016275960090909088 1 0.0016672934727272725 1 0.0017069909363636362 1 0.0017466883999999998 1 0.0017863858636363635 1 0.001826083327272727 1 0.0018657807909090906 1 0.0019054782545454543 1 0.001945175718181818 1 0.0019848731818181814 1 0.0020245706454545451 1 0.0020642681090909088 1 0.0021039655727272725 1 0.0021436630363636361 1 0.0021833604999999998 1 0.0022230579636363635 1 0.0022627554272727272 1 0.0023024528909090908 1 0.0023421503545454541 1 0.0023818478181818177 1 0.0024215452818181814 1 0.0024612427454545451 1 0.0025009402090909088 1 0.0025406376727272724 1 0.0025803351363636361 1 0.0026200325999999998 1 0.0026597300636363634 1 0.0026994275272727271 1 0.0027391249909090908 1 0.002778822454545454 1 0.0028185199181818177 1 0.0028582173818181814 1 0.002897914845454545 1 0.0029376123090909087 1 0.0029773097727272724 1 0.0030170072363636361 1 0.0030567046999999997 1 0.0030964021636363634 1 0.0031360996272727271 1 0.0031757970909090903 1 0.003215494554545454 1 0.0032551920181818177 1 0.0032948894818181813 1 0.003334586945454545 1 0.0033742844090909087 1 0.0034139818727272724 1 0.003453679336363636 1 0.0034933767999999997 1 0.0035330742636363634 1 0.003572771727272727 1 0.0036124691909090903 1 0.003652166654545454 1 0.0036918641181818176 1 0.0037315615818181813 1 0.003771259045454545 1 0.0038109565090909086 1 0.0038506539727272723 1 0.003890351436363636 1 0.0039300488999999992 1 0.0039697463636363629 1 0.0040094438272727266 1 0.0040491412909090902 1 0.0040888387545454539 1 0.0041285362181818176 1 0.0041682336818181813 1 0.0042079311454545449 1 0.0042476286090909086 1 0.0042873260727272723 1 0.004327023536363636 1 0.0043667209999999996 4
1 0.99999999989585775 0.49999997405836749 -1 -2.7684499314806934e-10 
1 0.99999999989585775 -0.5000000259416324 -1 -2.7684499314806934e-10 
7 0 0  3 25 23  6.2831853071795862 0.001311436621218991  6.2831862121866884 0.0090459026788823112  6.2831879056634961 0.024514834794874825  6.2831902213197441 0.047718232970770193  6.2831925067011998 0.070921631148483419  6.2831947137837503 0.094125029327917539  6.2831968592332021 0.11732842750906206  6.2831989421624179 0.14053182569175143  6.2832009661838342 0.16373522387599782  6.283202933514799 0.18693862206170145  6.2832048465701558 0.21014202024878861  6.2832067075475351 0.23334541843725273  6.2832085185495483 0.25654881662696494  6.2832102815612121 0.27975221481793322  6.28321199846539 0.30295561301009766  6.2832136710472923 0.32615901120339846  6.2832153010012703 0.34936240939778146  6.2832168899363605 0.37256580759326363  6.2832184393816704 0.39576920578972996  6.2832199507911319 0.41897260398720026  6.2832214255485646 0.44217600218559661  6.2832228649699999 0.46537940038492248  6.2832242703147028 0.48858279858511294  6.2832251852797683 0.50405173071914067  6.2832256374798465 0.51178619678629167 
 0.11663718300000001 4 0.14192706331818183 1 0.16721694363636364 1 0.19250682395454544 1 0.21779670427272727 1 0.24308658459090907 1 0.26837646490909089 1 0.29366634522727275 1 0.31895622554545455 1 0.34424610586363635 1 0.36953598618181815 1 0.39482586649999996 1 0.42011574681818176 1 0.44540562713636356 1 0.47069550745454547 1 0.49598538777272727 1 0.52127526809090907 1 0.54656514840909087 1 0.57185502872727267 1 0.59714490904545448 1 0.62243478936363628 1 0.64772466968181819 1 0.67301454999999999 4
7 0 0  3 25 23  0 0.001311436621218991  9.0500710303587084e-07 0.0090459026788823112  2.5984839098214252e-06 0.024514834794874825  4.9141401587959876e-06 0.047718232970770193  7.1995216126552464e-06 0.070921631148483419  9.4066041640417097e-06 0.094125029327917539  1.155205361591527e-05 0.11732842750906206  1.3634982831689513e-05 0.14053182569175143  1.5659004247048358e-05 0.16373522387599782  1.7626335212739264e-05 0.18693862206170145  1.9539390568645842e-05 0.21014202024878861  2.1400367949730992e-05 0.23334541843725273  2.321136996208395e-05 0.25654881662696494  2.4974381626741149e-05 0.27975221481793322  2.6691285803792653e-05 0.30295561301009766  2.8363867706104884e-05 0.32615901120339846  2.9993821683227395e-05 0.34936240939778146  3.158275677339617e-05 0.37256580759326363  3.3132202083230311e-05 0.39576920578972996  3.4643611544815656e-05 0.41897260398720026  3.6118368978321769e-05 0.44217600218559661  3.7557790413700332e-05 0.46537940038492248  3.8963135116532044e-05 0.48858279858511294  3.9878100181134357e-05 0.50405173071914067  4.033030025940576e-05 0.51178619678629167 
 0.11663718300000001 4 0.14192706331818183 1 0.16721694363636364 1 0.19250682395454544 1 0.21779670427272727 1 0.24308658459090907 1 0.26837646490909089 1 0.29366634522727275 1 0.31895622554545455 1 0.34424610586363635 1 0.36953598618181815 1 0.39482586649999996 1 0.42011574681818176 1 0.44540562713636356 1 0.47069550745454547 1 0.49598538777272727 1 0.52127526809090907 1 0.54656514840909087 1 0.57185502872727267 1 0.59714490904545448 1 0.62243478936363628 1 0.64772466968181819 1 0.67301454999999999 4
7 0 0  1 2 2  0.32698544750003022 -0.00014458384440718675  0.32698544950017649 -0.50000002607228566 
 0.99983906845169557 2 1.4996944298066968 2
7 0 0  3 25 23  1.000000194030515 0.49983005498038702  0.99995079773345963 0.49200608381284616  0.99927795083701443 0.47662951964838118  0.99778880872394293 0.45408670292282394  0.99738707742925325 0.43181737518361918  0.99850256947107296 0.40942052030025089  1.0000243708964294 0.3866557848786405  1.0000138926748736 0.36311647705723882  0.99843113043486675 0.34036089861016694  0.99728137186607813 0.31797527835819939  0.99774724470123466 0.29570128429213116  0.99925719058277018 0.27318497121755425  1.0003790684635387 0.24992266229786186  0.99922793395472365 0.22666612457769353  0.99766225986397172 0.20414852569097708  0.99721206014793351 0.18188096244029361  0.99840519854530962 0.15950189064797116  1.0000221712567552 0.13673868083411844  1.0000184686939873 0.11317531199883069  0.99834729222465224 0.090431675580266546  0.99713359424600723 0.06806758311831429  0.99761715465912093 0.045823802281229509  0.99923870046281016 0.023249888907917016  0.99995785821688166 0.0078369503968345189  1.0000002422599601 -7.5226292017838148e-06 
 0.99983906845169557 4 1.0225597666951047 1 1.0452804649385139 1 1.0680011631819231 1 1.0907218614253322 1 1.1134425596687412 1 1.1361632579121506 1 1.1588839561555595 1 1.1816046543989687 1 1.2043253526423778 1 1.227046050885787 1 1.2497667491291962 1 1.2724874473726053 1 1.2952081456160145 1 1.3179288438594237 1 1.3406495421028328 1 1.3633702403462418 1 1.3860909385896512 1 1.4088116368330601 1 1.4315323350764693 1 1.4542530333198784 1 1.4769737315632876 1 1.4996944298066968 4
7 0 0  3 25 23  3.1425653442264689 0.51178620559909016  3.1913960213457138 0.5118042322442109  3.2876913534851759 0.51207521133315825  3.429528715459174 0.51267887258545164  3.5700591904279442 0.5128450009855573  3.711259410533188 0.51238386349076592  3.8542080224743209 0.51177843231386155  4.0011743773939088 0.51178058392250481  4.1440559476744223 0.51242433969385637  4.2851650936944807 0.51290995770158354  4.425682684646322 0.51271052675335638  4.5673899820426431 0.51208972673131081  4.7128768185556567 0.51163406155666125  4.8583226641747714 0.51210336840649884  5.0000127588236509 0.51276275741678656  5.1404601832006342 0.51295666750526769  5.2815128050472282 0.51244808822654941  5.424459736247524 0.51177926786036088  5.5716788667829498 0.51177871439475664  5.7145462009264634 0.5124714127300749  5.8555510611999715 0.512988217576549  5.9958952130623757 0.51277552870106835  6.1378654839366895 0.51209840060851208  6.2343139607813267 0.51180098812677466  6.2832256371202675 0.51178619658910929 
 0.99983906845169557 4 1.0225597666951047 1 1.0452804649385139 1 1.0680011631819231 1 1.0907218614253322 1 1.1134425596687412 1 1.1361632579121506 1 1.1588839561555595 1 1.1816046543989687 1 1.2043253526423778 1 1.227046050885787 1 1.2497667491291962 1 1.2724874473726053 1 1.2952081456160145 1 1.3179288438594237 1 1.3406495421028328 1 1.3633702403462418 1 1.3860909385896512 1 1.4088116368330601 1 1.4315323350764693 1 1.4542530333198784 1 1.4769737315632876 1 1.4996944298066968 4
1 0 0 1 0 
1 0 -10 1 0 
7 0 0  1 2 2  0.32698544950018593 0.49999997392771439  0.326985447500033 -0.00014458384440718675 
 0.4996944298066967 2 0.99983906845169557 2
7 0 0  3 91 89  1.0000002422599701 -7.5226292017838148e-06  1.0000000255800066 -0.0019688796020955746  0.99994969693213764 -0.0058750814132892959  0.99975655148650378 -0.011688180214198596  0.99947870453678433 -0.017458188608139746  0.99914589552360233 -0.023188986530480182  0.99878588902718402 -0.028884613997460784  0.99842427451862314 -0.034549308093001718  0.99808465039184713 -0.04018737825716534  0.99778868899196671 -0.045803200388035314  0.99755626635392891 -0.051400992735359141  0.99740541903948621 -0.056985421449783802  0.99735289056006948 -0.062559162847187544  0.99741245222685582 -0.068131849348632256  0.99756767721550199 -0.073715295205081244  0.99780273403195474 -0.079311498985207285  0.9980995898038324 -0.08492517671282851  0.99843866390994329 -0.090560398308300538  0.99879854390155276 -0.096221393243921538  0.99915598705137909 -0.10191245428396356  0.99948568827020401 -0.107637224594481  0.99976066222687254 -0.11340127811401701  0.99995117921515597 -0.11920565366062186  1.0000251868710694 -0.12506229516790501  0.99994950451149101 -0.13092094669810805  0.99975837154522229 -0.13671935001032143  0.99948419124709265 -0.14247849318729422  0.99915672575686143 -0.14819776143203112  0.99880344739785021 -0.15388272104979461  0.99844957700981252 -0.15953754335664305  0.99811820304633725 -0.16516691728500632  0.99783037039438882 -0.17077548735162895  0.99760517885322642 -0.17636780061952306  0.99745983527441529 -0.18194877069612314  0.99740983859653964 -0.18752162334404954  0.99746863391234741 -0.19309543926094697  0.99762128844674369 -0.19868047155949164  0.99785194273033984 -0.20427904101623406  0.99814298873846319 -0.20989568458421504  0.9984752000456083 -0.21553442476447127  0.99882758805642191 -0.22119940813249594  0.99917736532789636 -0.22689485475460014  0.99949973222287491 -0.23262433737673871  0.99976821535330573 -0.23839335656978888  0.99995378463628093 -0.24420273939215065  1.0000245611174636 -0.25006483582081485  0.99994930911367896 -0.25592884047510944  0.99976191149257387 -0.26173465029146881  0.9994933098775437 -0.26750233857854333  0.99917235835806917 -0.27323111663902422  0.99882571891444594 -0.27892615091266482  0.99847801211890752 -0.284591255156738  0.99815189985839015 -0.29023073811150302  0.99786816712019755 -0.2958488657075915  0.99764584944902013 -0.30144980188843684  0.99750214636135259 -0.30703809366875534  0.99745310857223257 -0.3126165559429448  0.99751140441647157 -0.31819405189599537  0.99766123944855367 -0.32378087055407256  0.9978876909135509 -0.32937945294254645  0.99817354093877453 -0.33499443136820739  0.99850003696769551 -0.34062992213332466  0.998846588843467 -0.34629015436401334  0.99919077316467697 -0.35197942372651658  0.99950812103998121 -0.35770135529656555  0.99977245968081974 -0.36346153356786304  0.99995506607368467 -0.36926087490227966  1.0000241485997412 -0.37511135383042049  0.99994959751999568 -0.38096298002376128  0.99976553655483213 -0.38675816211061553  0.99950219228189641 -0.39251632801201941  0.99918797422276462 -0.39823686355678189  0.9988490295992134 -0.4039248952266743  0.99850947679939484 -0.4095842623873085  0.99819145788778996 -0.41521928969116972  0.99791522915100739 -0.42083427358288361  0.99769926087302163 -0.42643339916689271  0.99756023361166823 -0.43202129092181041  0.99751340459715465 -0.43760065022174355  0.99757155867753389 -0.4431809486178715  0.99771967136526141 -0.44877255244956582  0.99794245635665557 -0.45437741005372656  0.9982228331279519 -0.45999981394872846  0.99854225334836755 -0.46564349280473705  0.99888051403686051 -0.47131232472715112  0.99921573742229775 -0.47701016938821672  0.99952416380075537 -0.48274055313332553  0.99978050733730572 -0.48850775574377137  0.99995702992561897 -0.49431591056155577  1.000001320480395 -0.49821422907272228  1.000000194030515 -0.50016994501961287 
 0.4996944298066967 4 0.50537789160948077 1 0.51106135341226488 1 0.51674481521504889 1 0.52242827701783301 1 0.52811173882061713 1 0.53379520062340113 1 0.53947866242618525 1 0.54516212422896937 1 0.55084558603175338 1 0.55652904783453749 1 0.56221250963732161 1 0.56789597144010562 1 0.57357943324288974 1 0.57926289504567374 1 0.58494635684845786 1 0.59062981865124198 1 0.59631328045402598 1 0.6019967422568101 1 0.60768020405959411 1 0.61336366586237823 1 0.61904712766516234 1 0.62473058946794646 1 0.63041405127073047 1 0.63609751307351459 1 0.64178097487629859 1 0.64746443667908271 1 0.65314789848186683 1 0.65883136028465084 1 0.66451482208743495 1 0.67019828389021896 1 0.67588174569300308 1 0.6815652074957872 1 0.68724866929857131 1 0.69293213110135532 1 0.69861559290413944 1 0.70429905470692344 1 0.70998251650970756 1 0.71566597831249168 1 0.72134944011527569 1 0.7270329019180598 1 0.73271636372084381 1 0.73839982552362793 1 0.74408328732641205 1 0.74976674912919616 1 0.75545021093198017 1 0.76113367273476418 1 0.7668171345375483 1 0.77250059634033241 1 0.77818405814311653 1 0.78386751994590054 1 0.78955098174868465 1 0.79523444355146866 1 0.80091790535425278 1 0.8066013671570369 1 0.81228482895982101 1 0.81796829076260502 1 0.82365175256538903 1 0.82933521436817315 1 0.83501867617095726 1 0.84070213797374138 1 0.84638559977652539 1 0.85206906157930939 1 0.85775252338209351 1 0.86343598518487763 1 0.86911944698766175 1 0.87480290879044587 1 0.88048637059322987 1 0.88616983239601388 1 0.891853294198798 1 0.89753675600158211 1 0.90322021780436623 1 0.90890367960715024 1 0.91458714140993425 1 0.92027060321271836 1 0.92595406501550248 1 0.9316375268182866 1 0.93732098862107061 1 0.94300445042385472 1 0.94868791222663873 1 0.95437137402942285 1 0.96005483583220697 1 0.96573829763499108 1 0.97142175943777509 1 0.9771052212405591 1 0.98278868304334321 1 0.98847214484612733 1 0.99415560664891145 1 0.99983906845169557 4
7 0 0  3 91 89  4.0329940682148901e-05 0.51178619658910296  0.012277825785214525 0.51178610563360316  0.036663614903832631 0.51180642485986272  0.072998482213151306 0.51188548351808483  0.10911317936909448 0.51199984405143251  0.14503186053314376 0.51213746874386723  0.18077774530972501 0.51228704842561712  0.216373431833909 0.51243805665829911  0.25184066716759634 0.51258065476350534  0.28720062359679588 0.5127056472989111  0.32247277259018059 0.51280440509779768  0.3576789299450116 0.51286888803055375  0.3928280766693204 0.51289132174848462  0.42797295546151837 0.51286517907198403  0.46318013556970961 0.51279851224023332  0.49845446930705517 0.51269854049045882  0.53381831555821257 0.5125732708844406  0.56929051642417683 0.51243112657047674  0.60489173574831767 0.51228111961808531  0.64064403084369115 0.51213284621495569  0.6765670773573067 0.51199666652310105  0.71269347000022787 0.51188334848859873  0.74903355789605008 0.51180495552566185  0.78565474218093811 0.51177462497742654  0.8222921547971076 0.51180510407900626  0.85860261378349456 0.51188278924050901  0.89471027871428888 0.51199449557876253  0.93061442557131269 0.51212820714383644  0.96634707575824841 0.51227278985553937  1.0019306552712575 0.51241798562614604  1.0373891785111029 0.51255433538929629  1.0727453980147024 0.51267312285015387  1.1080206471376171 0.51276632458404858  1.1432380143148126 0.51282653240748866  1.1784095567756587 0.51284699867076711  1.2135840743303419 0.5128212357099815  1.2488177000512319 0.51275610062142718  1.2841166061093876 0.51265908902290791  1.3195012366829335 0.51253799725465932  1.3549892664045151 0.5124010655794321  1.3905999027365681 0.51225700820145936  1.4263537183160082 0.51211503996204111  1.4622689622271707 0.51198504312734405  1.4983763685031022 0.51187720862113051  1.5346848905218708 0.51180293150460898  1.5712593630010181 0.51177448713596785  1.6078454781840508 0.51180411622775535  1.6441270917416384 0.51187954075758424  1.6802184589621145 0.5119882531165213  1.7161184803160818 0.51211888186808807  1.7518561927861089 0.51226074393343268  1.7874517230011815 0.51240388641271772  1.822926625414599 0.51253899905783273  1.8583013025420652 0.51265737454180094  1.8935947846379246 0.51275082737471522  1.9288280521558789 0.51281175111960964  1.96401088123406 0.51283268445608632  1.9991910999443743 0.51280772412536035  2.0344256166604371 0.51274462132824128  2.0697220552048243 0.51265001683831135  2.1051022582380785 0.51253142865861867  2.1405854018090782 0.51239677869045541  2.1761922145240682 0.51225458881798946  2.2119448794875805 0.5121139695182374  2.2478630446722434 0.51198479953321108  2.2839796578158253 0.51187735547713875  2.3203039505309988 0.51180323187002508  2.3569056169151636 0.51177505581033822  2.3935144169727707 0.5118051341499672  2.4298084886904334 0.51188057581881763  2.4659053904164576 0.51198877716796953  2.5018047881447831 0.51211824380468951  2.5375371845863874 0.51225828591245814  2.5731239847766254 0.51239901884126127  2.6085880439812712 0.51253128565776396  2.643951039496514 0.51264660528110528  2.6792331418245254 0.51273711553058976  2.7144567306406682 0.51279553037029568  2.7496316886139116 0.5128150648690083  2.7848103868241338 0.51278949432774901  2.8200507980980252 0.51272588403852248  2.855357953068518 0.51263147106263773  2.8907519777720285 0.51251387924827763  2.926249966521052 0.51238111440227929  2.9618707144386285 0.51224163217593144  2.9976339476879907 0.51210435604500815  3.0335586573435904 0.51197884850790321  3.0696704551531333 0.5118749372645649  3.1059959267041481 0.51180364999369365  3.1303519315446664 0.51178578521197926  3.1425653442264689 0.51178620559909016 
 0.4996944298066967 4 0.50537789160948077 1 0.51106135341226488 1 0.51674481521504889 1 0.52242827701783301 1 0.52811173882061713 1 0.53379520062340113 1 0.53947866242618525 1 0.54516212422896937 1 0.55084558603175338 1 0.55652904783453749 1 0.56221250963732161 1 0.56789597144010562 1 0.57357943324288974 1 0.57926289504567374 1 0.58494635684845786 1 0.59062981865124198 1 0.59631328045402598 1 0.6019967422568101 1 0.60768020405959411 1 0.61336366586237823 1 0.61904712766516234 1 0.62473058946794646 1 0.63041405127073047 1 0.63609751307351459 1 0.64178097487629859 1 0.64746443667908271 1 0.65314789848186683 1 0.65883136028465084 1 0.66451482208743495 1 0.67019828389021896 1 0.67588174569300308 1 0.6815652074957872 1 0.68724866929857131 1 0.69293213110135532 1 0.69861559290413944 1 0.70429905470692344 1 0.70998251650970756 1 0.71566597831249168 1 0.72134944011527569 1 0.7270329019180598 1 0.73271636372084381 1 0.73839982552362793 1 0.74408328732641205 1 0.74976674912919616 1 0.75545021093198017 1 0.76113367273476418 1 0.7668171345375483 1 0.77250059634033241 1 0.77818405814311653 1 0.78386751994590054 1 0.78955098174868465 1 0.79523444355146866 1 0.80091790535425278 1 0.8066013671570369 1 0.81228482895982101 1 0.81796829076260502 1 0.82365175256538903 1 0.82933521436817315 1 0.83501867617095726 1 0.84070213797374138 1 0.84638559977652539 1 0.85206906157930939 1 0.85775252338209351 1 0.86343598518487763 1 0.86911944698766175 1 0.87480290879044587 1 0.88048637059322987 1 0.88616983239601388 1 0.891853294198798 1 0.89753675600158211 1 0.90322021780436623 1 0.90890367960715024 1 0.91458714140993425 1 0.92027060321271836 1 0.92595406501550248 1 0.9316375268182866 1 0.93732098862107061 1 0.94300445042385472 1 0.94868791222663873 1 0.95437137402942285 1 0.96005483583220697 1 0.96573829763499108 1 0.97142175943777509 1 0.9771052212405591 1 0.98278868304334321 1 0.98847214484612733 1 0.99415560664891145 1 0.99983906845169557 4
1 0 0 1 0 
1 0 -10 1 0 
1 0.99983906845169557 0 0 -1 
1 0.99983906845169557 0 0 -1 
1 1.4996944298066968 0 0 -1 
1 0.4996944298066967 0 0 -1 
Curves 6
7 0 1  3 72 25  -0.54158771900000002 0.43965944000000001 45.390000000000001  -0.51250453900000004 0.47548751299999997 45.390000000000001  -0.48016009700000001 0.50759460599999995 45.390000000000001  -0.44511646900000001 0.53662202800000003 45.390000000000001  -0.41007284100000002 0.56564945 45.390000000000001  -0.37181064400000002 0.59178451399999998 45.390000000000001  -0.331580865 0.61352437299999996 45.390000000000001  -0.29135108500000001 0.63526423300000001 45.390000000000001  -0.249360846 0.65264810299999998 45.390000000000001  -0.20579742300000001 0.66613936799999995 45.390000000000001  -0.16223399999999999 0.67963063300000004 45.390000000000001  -0.116808755 0.68923285700000003 45.390000000000001  -0.071600146000000003 0.69389559300000003 45.390000000000001  0.018817073 0.70322106299999998 45.390000000000001  0.111939803 0.69431452900000001 45.390000000000001  0.19893011299999999 0.66842477499999997 45.390000000000001  0.28592042299999998 0.64253501999999996 45.390000000000001  0.36875837099999997 0.59907317999999998 45.390000000000001  0.43937478299999999 0.54181865100000004 45.390000000000001  0.474682989 0.51319138600000003 45.390000000000001  0.50746013000000001 0.48031225500000002 45.390000000000001  0.53655930100000004 0.44519645200000002 45.390000000000001  0.56565847199999997 0.41008064999999999 45.390000000000001  0.59132441300000005 0.37256379699999997 45.390000000000001  0.61312682399999996 0.332344959 45.390000000000001  0.63492923499999998 0.29212612100000002 45.390000000000001  0.652668409 0.24935655200000001 45.390000000000001  0.66612983100000001 0.20590634499999999 45.390000000000001  0.67959125200000003 0.162456139 45.390000000000001  0.68909000600000003 0.117876705 45.390000000000001  0.69385530799999995 0.071989567000000004 45.390000000000001  0.698620609 0.026102429 45.390000000000001  0.69845447699999996 -0.019455968000000001 45.390000000000001  0.69420408199999994 -0.064742096999999998 45.390000000000001  0.68995368700000004 -0.11002822600000001 45.390000000000001  0.68139022000000005 -0.155541761 45.390000000000001  0.66831526299999999 -0.19936456299999999 45.390000000000001  0.65524030600000005 -0.24318736499999999 45.390000000000001  0.63783509400000005 -0.28515179200000002 45.390000000000001  0.61658509299999997 -0.32546618799999999 45.390000000000001  0.59533509299999998 -0.36578058400000002 45.390000000000001  0.57000299300000001 -0.40470049000000002 45.390000000000001  0.54133151300000004 -0.439974855 45.390000000000001  0.48398855400000002 -0.51052358399999997 45.390000000000001  0.41188884399999998 -0.570054124 45.390000000000001  0.33209266799999998 -0.61326471299999996 45.390000000000001  0.25229649100000001 -0.65647530300000001 45.390000000000001  0.162988297 -0.68431890100000003 45.390000000000001  0.072624098999999998 -0.693789133 45.390000000000001  0.027442000000000001 -0.69852424899999999 45.390000000000001  -0.018949429 -0.69848819299999998 45.390000000000001  -0.064363760000000006 -0.69424707200000002 45.390000000000001  -0.10977808999999999 -0.69000594999999998 45.390000000000001  -0.15443486300000001 -0.68162225499999995 45.390000000000001  -0.19824957000000001 -0.668633861 45.390000000000001  -0.24206427699999999 -0.65564546700000004 45.390000000000001  -0.28488486200000002 -0.63793586800000002 45.390000000000001  -0.32513509800000001 -0.61674814 45.390000000000001  -0.36538533299999998 -0.59556041299999996 45.390000000000001  -0.40361662399999998 -0.57081521300000004 45.390000000000001  -0.43941614000000001 -0.54178511399999996 45.390000000000001  -0.51101517100000005 -0.48372491499999998 45.390000000000001  -0.56979020800000002 -0.41241825799999998 45.390000000000001  -0.61334874900000003 -0.33192416600000002 45.390000000000001  -0.63512802000000002 -0.29167712099999998 45.390000000000001  -0.65250751399999996 -0.249698279 45.390000000000001  -0.66600602200000003 -0.20619184199999999 45.390000000000001  -0.67950453099999997 -0.162685406 45.390000000000001  -0.68915542699999999 -0.11725229400000001 45.390000000000001  -0.69385154299999996 -0.072025819000000005 45.390000000000001  -0.71263600599999999 0.10888007800000001 45.390000000000001  -0.65762884099999996 0.29670637 45.390000000000001 
 0 3 0.00013646 3 0.00027292000000000001 3 0.00040937999999999999 3 0.00054584000000000002 3 0.00081875999999999997 3 0.00109168 3 0.00122814 3 0.0013646000000000001 3 0.00150106 3 0.0016375210000000001 3 0.001773981 3 0.0019104409999999999 3 0.0020469009999999998 3 0.002183361 3 0.0024562809999999998 3 0.0027292010000000001 3 0.0028656609999999998 3 0.003002121 3 0.0031385810000000001 3 0.0032750409999999998 3 0.0035479610000000001 3 0.0036844209999999998 3 0.0038208809999999999 3 0.0043667209999999996 3
7 0 0  1 2 2  -0.54158771900000002 0.43965944000000001 45.390000000000001  -0.72936373700000001 0.59204878500000002 44.940442288 
 0.11663718300000001 2 0.67301454999999999 2
7 0 1  3 96 33  0.73055472499999996 -0.59057854399999998 44.940442218000001  0.809889215 -0.49244468699999999 44.940432676999997  0.86674110299999996 -0.38253864199999998 44.939430244  0.90109017700000005 -0.26630095300000001 44.939444844999997  0.91826471399999998 -0.208182108 44.939452146000001  0.92986389999999997 -0.14827288999999999 44.939703801999997  0.93550688199999998 -0.087192919999999993 44.939952476999999  0.93832837300000005 -0.056652935000000001 44.940076814000001  0.93966081400000001 -0.025820262 44.940200406000002  0.93945659699999995 0.0052276459999999999 44.940292335999999  0.93925238 0.036275555000000001 44.940384266000002  0.93750902800000002 0.067561569000000002 44.940444661000001  0.93418644100000003 0.098938934000000006 44.940442218999998  0.92089609500000003 0.224448393 44.940432448000003  0.88332375600000002 0.342512441 44.939377964999998  0.82545185700000001 0.44891957500000002 44.939391741999998  0.79651590699999997 0.50212314199999997 44.939398629999999  0.76237955199999996 0.55265731799999995 44.939663584000002  0.72319034999999998 0.59982455000000001 44.939925649999999  0.70359574999999996 0.62340816700000001 44.940056681999998  0.68273793699999996 0.64615004700000001 44.940186992999998  0.66063535900000003 0.66796299699999995 44.940283962000002  0.63853278000000002 0.689775947 44.940380931  0.61516696800000004 0.71067486099999999 44.940444677999999  0.59061232600000002 0.73052741300000001 44.940442220999998  0.49239376200000001 0.80993762199999997 44.940432393999998  0.38236201399999997 0.86682081499999997 44.939327487  0.26626021300000002 0.90112339699999999 44.939342695000001  0.20820931200000001 0.91827468800000001 44.939350298999997  0.14835622300000001 0.92987078300000003 44.939627751000003  0.087290681999999994 0.93551369500000003 44.939902015000001  0.056757912000000001 0.93833515099999998 44.940039147999997  0.025922028999999999 0.93966831100000003 44.940175482999997  -0.0051432509999999997 0.93946342699999996 44.940276892999997  -0.036208530000000003 0.939258543 44.940378303000003  -0.067527536999999999 0.93751295899999998 44.940444849999999  -0.098952824999999994 0.934184974 44.940442212999997  -0.224653981 0.92087303600000003 44.940431664999998  -0.34257982799999998 0.88329993799999995 44.939300693  -0.448897186 0.82548102499999998 44.939316628999997  -0.50205586400000002 0.79657156900000003 44.939324597000002  -0.55258527400000002 0.76244099200000004 44.939608659999998  -0.59976450699999995 0.72324396199999996 44.939889397000002  -0.62335412300000004 0.70364544600000001 44.940029766000002  -0.64610619599999997 0.68278031699999997 44.940169302999998  -0.66793061200000003 0.66066790799999997 44.940273081000001  -0.68975502700000002 0.638555498 44.940376858999997  -0.71066678500000002 0.61517711600000002 44.940444874000001  -0.73053031899999998 0.590608735 44.940442210999997  -0.80998445399999996 0.492335209 44.94043156  -0.86684076600000004 0.38231747199999999 44.939303131999999  -0.90113111000000001 0.26625006600000001 44.939319910000002  -0.918276282 0.20821636299999999 44.939328298  -0.92986977400000004 0.14836585599999999 44.939611591000002  -0.93551222499999998 0.087301161000000002 44.939891428000003  -0.93833345000000001 0.056768814000000001 44.940031345999998  -0.93966691400000002 0.025932918999999999 44.9401704  -0.93946269800000004 -0.0051311960000000002 44.940273795000003  -0.93925848099999998 -0.036195311000000001 44.94037719  -0.93751387600000002 -0.067511926999999999 44.940444827999997  -0.93418716599999996 -0.098932142000000001 44.940442210999997  -0.92088032500000006 -0.224613004 44.940431742000001  -0.88333603699999996 -0.34249802899999998 44.939346544999999  -0.825467061 -0.44890319899999997 44.939363845000003  -0.79653257300000002 -0.50210578400000005 44.939372495000001  -0.76237430100000003 -0.55265809499999996 44.939644706000003  -0.72317345300000002 -0.59983541200000001 44.939913445999998  -0.70357302899999996 -0.62342407099999997 44.940047815  -0.68271196099999998 -0.64616898099999998 44.940181316999997  -0.66061289899999998 -0.66797955200000003 44.940280569999999  -0.63851383799999994 -0.68979012299999998 44.940379823999997  -0.61515891899999997 -0.71068067899999998 44.940444800000002  -0.59062492700000002 -0.73051722699999999 44.940442210999997  -0.49248895999999998 -0.80986341500000003 44.940431855999996  -0.382459514 -0.86678252300000003 44.939363180999997  -0.26627388600000002 -0.901111938 44.939378431000002  -0.20818107199999999 -0.91827664600000003 44.939386055  -0.148297978 -0.92987265100000005 44.939654599999997  -0.087226864000000001 -0.93551366599999997 44.939919938000003  -0.056691307000000003 -0.93833417299999999 44.940052608000002  -0.025858745999999998 -0.93966593300000001 44.940184475000002  0.0051955389999999999 -0.93946065899999998 44.940282525999997  0.036249824 -0.93925538600000003 44.940380576999999  0.067549487000000005 -0.93751049900000005 44.940444769000003  0.098947564000000002 -0.93418553100000001 44.940442212000001  0.224539869 -0.92088565700000002 44.940431984999996  0.34249454299999998 -0.88333139900000002 44.939380593999999  0.44890613200000001 -0.82545785299999996 44.939397497000002  0.50211192599999999 -0.79652107999999999 44.939405948000001  0.55267578900000003 -0.76235320299999998 44.939669621999997  0.59986240099999999 -0.72314347499999998 44.939929935999999  0.623455706 -0.70353861100000004 44.940060093  0.64620469899999999 -0.68267328500000002 44.940189410000002  0.66801746399999995 -0.66057115300000002 44.940285564  0.68983022800000005 -0.63846902100000003 44.940381717999998  0.71072110300000002 -0.61511200799999999 44.940444604 
 0 3 0.0625 3 0.09375 3 0.109375 3 0.125 3 0.1875 3 0.21875 3 0.234375 3 0.25 3 0.3125 3 0.34375 3 0.359375 3 0.375 3 0.4375 3 0.46875 3 0.484375 3 0.5 3 0.5625 3 0.59375 3 0.609375 3 0.625 3 0.6875 3 0.71875 3 0.734375 3 0.75 3 0.8125 3 0.84375 3 0.859375 3 0.875 3 0.9375 3 0.96875 3 0.984375 3 1 3
7 0 1  3 96 33  0.73055472499999996 -0.59057854399999998 44.940442218000001  0.809889215 -0.49244468699999999 44.940432676999997  0.86674110299999996 -0.38253864199999998 44.939430244  0.90109017700000005 -0.26630095300000001 44.939444844999997  0.91826471399999998 -0.208182108 44.939452146000001  0.92986389999999997 -0.14827288999999999 44.939703801999997  0.93550688199999998 -0.087192919999999993 44.939952476999999  0.93832837300000005 -0.056652935000000001 44.940076814000001  0.93966081400000001 -0.025820262 44.940200406000002  0.93945659699999995 0.0052276459999999999 44.940292335999999  0.93925238 0.036275555000000001 44.940384266000002  0.93750902800000002 0.067561569000000002 44.940444661000001  0.93418644100000003 0.098938934000000006 44.940442218999998  0.92089609500000003 0.224448393 44.940432448000003  0.88332375600000002 0.342512441 44.939377964999998  0.82545185700000001 0.44891957500000002 44.939391741999998  0.79651590699999997 0.50212314199999997 44.939398629999999  0.76237955199999996 0.55265731799999995 44.939663584000002  0.72319034999999998 0.59982455000000001 44.939925649999999  0.70359574999999996 0.62340816700000001 44.940056681999998  0.68273793699999996 0.64615004700000001 44.940186992999998  0.66063535900000003 0.66796299699999995 44.940283962000002  0.63853278000000002 0.689775947 44.940380931  0.61516696800000004 0.71067486099999999 44.940444677999999  0.59061232600000002 0.73052741300000001 44.940442220999998  0.49239376200000001 0.80993762199999997 44.940432393999998  0.38236201399999997 0.86682081499999997 44.939327487  0.26626021300000002 0.90112339699999999 44.939342695000001  0.20820931200000001 0.91827468800000001 44.939350298999997  0.14835622300000001 0.92987078300000003 44.939627751000003  0.087290681999999994 0.93551369500000003 44.939902015000001  0.056757912000000001 0.93833515099999998 44.940039147999997  0.025922028999999999 0.93966831100000003 44.940175482999997  -0.0051432509999999997 0.93946342699999996 44.940276892999997  -0.036208530000000003 0.939258543 44.940378303000003  -0.067527536999999999 0.93751295899999998 44.940444849999999  -0.098952824999999994 0.934184974 44.940442212999997  -0.224653981 0.92087303600000003 44.940431664999998  -0.34257982799999998 0.88329993799999995 44.939300693  -0.448897186 0.82548102499999998 44.939316628999997  -0.50205586400000002 0.79657156900000003 44.939324597000002  -0.55258527400000002 0.76244099200000004 44.939608659999998  -0.59976450699999995 0.72324396199999996 44.939889397000002  -0.62335412300000004 0.70364544600000001 44.940029766000002  -0.64610619599999997 0.68278031699999997 44.940169302999998  -0.66793061200000003 0.66066790799999997 44.940273081000001  -0.68975502700000002 0.638555498 44.940376858999997  -0.71066678500000002 0.61517711600000002 44.940444874000001  -0.73053031899999998 0.590608735 44.940442210999997  -0.80998445399999996 0.492335209 44.94043156  -0.86684076600000004 0.38231747199999999 44.939303131999999  -0.90113111000000001 0.26625006600000001 44.939319910000002  -0.918276282 0.20821636299999999 44.939328298  -0.92986977400000004 0.14836585599999999 44.939611591000002  -0.93551222499999998 0.087301161000000002 44.939891428000003  -0.93833345000000001 0.056768814000000001 44.940031345999998  -0.93966691400000002 0.025932918999999999 44.9401704  -0.93946269800000004 -0.0051311960000000002 44.940273795000003  -0.93925848099999998 -0.036195311000000001 44.94037719  -0.93751387600000002 -0.067511926999999999 44.940444827999997  -0.93418716599999996 -0.098932142000000001 44.940442210999997  -0.92088032500000006 -0.224613004 44.940431742000001  -0.88333603699999996 -0.34249802899999998 44.939346544999999  -0.825467061 -0.44890319899999997 44.939363845000003  -0.79653257300000002 -0.50210578400000005 44.939372495000001  -0.76237430100000003 -0.55265809499999996 44.939644706000003  -0.72317345300000002 -0.59983541200000001 44.939913445999998  -0.70357302899999996 -0.62342407099999997 44.940047815  -0.68271196099999998 -0.64616898099999998 44.940181316999997  -0.66061289899999998 -0.66797955200000003 44.940280569999999  -0.63851383799999994 -0.68979012299999998 44.940379823999997  -0.61515891899999997 -0.71068067899999998 44.940444800000002  -0.59062492700000002 -0.73051722699999999 44.940442210999997  -0.49248895999999998 -0.80986341500000003 44.940431855999996  -0.382459514 -0.86678252300000003 44.939363180999997  -0.26627388600000002 -0.901111938 44.939378431000002  -0.20818107199999999 -0.91827664600000003 44.939386055  -0.148297978 -0.92987265100000005 44.939654599999997  -0.087226864000000001 -0.93551366599999997 44.939919938000003  -0.056691307000000003 -0.93833417299999999 44.940052608000002  -0.025858745999999998 -0.93966593300000001 44.940184475000002  0.0051955389999999999 -0.93946065899999998 44.940282525999997  0.036249824 -0.93925538600000003 44.940380576999999  0.067549487000000005 -0.93751049900000005 44.940444769000003  0.098947564000000002 -0.93418553100000001 44.940442212000001  0.224539869 -0.92088565700000002 44.940431984999996  0.34249454299999998 -0.88333139900000002 44.939380593999999  0.44890613200000001 -0.82545785299999996 44.939397497000002  0.50211192599999999 -0.79652107999999999 44.939405948000001  0.55267578900000003 -0.76235320299999998 44.939669621999997  0.59986240099999999 -0.72314347499999998 44.939929935999999  0.623455706 -0.70353861100000004 44.940060093  0.64620469899999999 -0.68267328500000002 44.940189410000002  0.66801746399999995 -0.66057115300000002 44.940285564  0.68983022800000005 -0.63846902100000003 44.940381717999998  0.71072110300000002 -0.61511200799999999 44.940444604 
 0 3 0.0625 3 0.09375 3 0.109375 3 0.125 3 0.1875 3 0.21875 3 0.234375 3 0.25 3 0.3125 3 0.34375 3 0.359375 3 0.375 3 0.4375 3 0.46875 3 0.484375 3 0.5 3 0.5625 3 0.59375 3 0.609375 3 0.625 3 0.6875 3 0.71875 3 0.734375 3 0.75 3 0.8125 3 0.84375 3 0.859375 3 0.875 3 0.9375 3 0.96875 3 0.984375 3 1 3
1 0.729941179 -0.59133592300000004 44.940442187999999 0 0 -1 
1 -0.72936373399999999 0.59204878299999997 44.940442286 0 0 -1 
Polygon3D 0
PolygonOnTriangulations 0
Surfaces 7
3 9.0105000000173519e-06 1.1100500000027491e-05 45.391154936250004 9.0384638781952542e-06 1.1137916825284854e-05 -0.99999999989712651 -0.77639378577390361 0.63024811734083419 2.2439222621181953e-09 -0.63024811727602337 -0.77639378569401296 -1.4343884252503459e-05 0.69695859680360217
0.49353034071556851
9 0 0 0 1 1 3 2 33 2 17 -0.72936373700000001 0.59204878599999999 44.940442287000003  -0.64968875000000004 0.69020726099999996 44.940441954999997  -0.55375762100000003 0.76871252999999995 44.939321562000003  -0.340917578 0.88394201699999997 44.939311388  -0.22288618800000001 0.92130378099999999 44.940442748000002  0.028667728999999999 0.94745305000000002 44.940441825999997  0.151930764 0.935138566 44.939347155  0.383993215 0.86609915000000004 44.939337944999998  0.49394872000000001 0.80899184800000001 44.940443219000002  0.69015441300000002 0.64973111299999997 44.940441352999997  0.76863034699999999 0.55387003199999996 44.939395251000001  0.88396742900000003 0.34084729000000002 44.939387977000003  0.92132671099999996 0.22268021199999999 44.940442781000002  0.94743241899999997 -0.028483867 44.940441792000001  0.93515194199999996 -0.151837156 44.939449701000001  0.86601795999999998 -0.38417229400000003 44.939439700999998  0.80894413600000004 -0.49399796899999998 44.940442502000003  0.64983567499999995 -0.69003512099999997 44.940442072000003  0.55385990500000004 -0.768635921 44.939404197000002  0.340830415 -0.88397387900000002 44.939390447999997  0.22277234600000001 -0.921316154 44.940442290999997  -0.028561198999999999 -0.94744143700000005 44.940442283000003  -0.15186137899999999 -0.93515407399999995 44.939383278999998  -0.38409241 -0.86605993000000003 44.939373285000002  -0.49404347300000001 -0.80891761100000004 44.940442331  -0.690082427 -0.64978686799999996 44.940442243  -0.76864934600000001 -0.55385097400000005 44.939370611000001  -0.88397874099999996 -0.34083366500000001 44.939356723000003  -0.92131075600000001 -0.22284573199999999 44.940442378999997  -0.94745031199999996 0.028668046999999999 44.940442195000003  -0.935134083 0.15195507799999999 44.939325717999999  -0.86611941999999997 0.38394759000000001 44.939313767000002  -0.80903872499999996 0.49389031 44.940442619000002  
-0.54110531299999998 0.43926794400000002 45.391154936  -0.48906883800000001 0.50337222299999995 45.391155337999997  -0.416804391 0.56727370099999996 45.390166375  -0.24727142599999999 0.65908197999999996 45.390158585999998  -0.154272772 0.68467946800000001 45.391154655000001  0.010229063 0.70177520299999996 45.391155216999998  0.106529312 0.69579959999999996 45.390189345000003  0.291035771 0.64092940200000004 45.390182185  0.37483611300000003 0.59340620799999999 45.391155226999999  0.50368855199999996 0.48881352700000003 45.391154645999997  0.56746545400000004 0.41640263900000002 45.390232498000003  0.65884577799999999 0.24766292300000001 45.390226634000001  0.68460810999999999 0.15496785299999999 45.391154694000001  0.70184805500000003 -0.010938526 45.391155179000002  0.69559278499999999 -0.107134617 45.390280930000003  0.641060611 -0.29047487 45.390272965999998  0.59368571000000003 -0.37448804400000002 45.391154512  0.48856095799999999 -0.50400344200000002 45.391155361000003  0.41639278200000002 -0.56746374600000005 45.390239931000004  0.247722784 -0.65881658700000001 45.390229357999999  0.15469930300000001 -0.68463651299999995 45.391154186000001  -0.010675858999999999 -0.70182026399999997 45.391155685999998  -0.106710716 -0.69573578800000002 45.390221548  -0.290864124 -0.640968443 45.390213744  -0.37487412399999998 -0.59337973600000005 45.391154221999997  -0.50368965099999996 -0.488808252 45.391155650000002  -0.56736397299999997 -0.41659905699999999 45.390209882000001  -0.65893797700000001 -0.24751793 45.390199308  -0.68467464 -0.154344758 45.391154307999997  -0.70178453500000004 0.010344396 45.391155564000002  -0.69584760300000004 0.106378123 45.390169921000002  -0.64090895400000003 0.29114103200000002 45.390160858999998  -0.59314178699999998 0.37516366600000001 45.391154534999998  

0.32698544800000001 2
0.88479217799999998 2

-0.50000002600000004 3
-0.43750002599999999 2
-0.37500002599999999 2
-0.31250002599999999 2
-0.25000002599999999 2
-0.18750002599999999 2
-0.12500002599999999 2
-0.062500026 2
-2.6000000000000001e-08 2
0.062499974 2
0.124999974 2
0.18749997400000001 2
0.24999997400000001 2
0.31249997400000001 2
0.37499997400000001 2
0.43749997400000001 2
0.49999997400000001 3

1 0 0 45.390000000000001 0 0 1 0 -1 0 1 0 -0 
9 0 0 0 1 1 3 2 17 2 9 0.87090481900000005 -0.70700407200000004 44.378950768999999  0.68495668200000004 -0.936065217 44.378950930000002  0.40933184 -1.08523679 44.378952648000002  -0.177318683 -1.1462402389999999 44.378948891  -0.47750472300000002 -1.0571593079999999 44.378954014000001  -0.93627980700000002 -0.68483183299999995 44.378947525999997  -1.0853058170000001 -0.409185201 44.378949323000001  -1.1462129830000001 0.17757409399999999 44.378952216000002  -1.057160538 0.47754627799999999 44.378951948999998  -0.68470185100000003 0.93639688200000004 44.378949589000001  -0.409491785 1.0852311720000001 44.378952146000003  0.17756108700000001 1.1462544299999999 44.378949392000003  0.47780116099999997 1.0569430440000001 44.378953168000002  0.93609432599999998 0.68495804199999999 44.378948369  1.085214345 0.40964062099999998 44.378952263000002  1.146270208 -0.177699835 44.378949274999997  1.056852957 -0.47794292700000002 44.378950609  
0.72932763300000003 -0.59209337200000001 44.940442160000003  0.57525711300000004 -0.78188182699999997 44.940442290999997  0.34065162999999998 -0.90905603300000004 44.940443383000002  -0.146392096 -0.95969666600000003 44.940440936000002  -0.40243960499999998 -0.88324746300000001 44.940444479  -0.78156457300000004 -0.57555599000000002 44.940439841  -0.90913127400000004 -0.34036369100000002 44.940440807000002  -0.95965600600000001 0.14643705700000001 44.940443512999998  -0.88326943400000002 0.40244816700000002 44.940442898999997  -0.57543064399999999 0.78168337300000001 44.940441419999999  -0.34053509300000001 0.90907662899999997 44.940443072000001  0.146335617 0.95968231299999995 44.940441245999999  0.40219772399999998 0.88346232899999999 44.940443946000002  0.78188621599999997 0.57527638699999994 44.940440371999998  0.90909131200000004 0.34038201899999998 44.940443094999999  0.95966662300000005 -0.14617286500000001 44.940441223000001  0.88339815200000005 -0.40230491699999998 44.940442029000003  

0 2
1 2

-0.5000038 3
-0.3750038 2
-0.2500038 2
-0.1250038 2
-3.8e-06 2
0.1249962 2
0.2499962 2
0.3749962 2
0.4999962 3

6 -0 -0 1 
7 0 1  3 96 33  0.73055472499999996 -0.59057854399999998 44.940442218000001  0.809889215 -0.49244468699999999 44.940432676999997  0.86674110299999996 -0.38253864199999998 44.939430244  0.90109017700000005 -0.26630095300000001 44.939444844999997  0.91826471399999998 -0.208182108 44.939452146000001  0.92986389999999997 -0.14827288999999999 44.939703801999997  0.93550688199999998 -0.087192919999999993 44.939952476999999  0.93832837300000005 -0.056652935000000001 44.940076814000001  0.93966081400000001 -0.025820262 44.940200406000002  0.93945659699999995 0.0052276459999999999 44.940292335999999  0.93925238 0.036275555000000001 44.940384266000002  0.93750902800000002 0.067561569000000002 44.940444661000001  0.93418644100000003 0.098938934000000006 44.940442218999998  0.92089609500000003 0.224448393 44.940432448000003  0.88332375600000002 0.342512441 44.939377964999998  0.82545185700000001 0.44891957500000002 44.939391741999998  0.79651590699999997 0.50212314199999997 44.939398629999999  0.76237955199999996 0.55265731799999995 44.939663584000002  0.72319034999999998 0.59982455000000001 44.939925649999999  0.70359574999999996 0.62340816700000001 44.940056681999998  0.68273793699999996 0.64615004700000001 44.940186992999998  0.66063535900000003 0.66796299699999995 44.940283962000002  0.63853278000000002 0.689775947 44.940380931  0.61516696800000004 0.71067486099999999 44.940444677999999  0.59061232600000002 0.73052741300000001 44.940442220999998  0.49239376200000001 0.80993762199999997 44.940432393999998  0.38236201399999997 0.86682081499999997 44.939327487  0.26626021300000002 0.90112339699999999 44.939342695000001  0.20820931200000001 0.91827468800000001 44.939350298999997  0.14835622300000001 0.92987078300000003 44.939627751000003  0.087290681999999994 0.93551369500000003 44.939902015000001  0.056757912000000001 0.93833515099999998 44.940039147999997  0.025922028999999999 0.93966831100000003 44.940175482999997  -0.0051432509999999997 0.93946342699999996 44.940276892999997  -0.036208530000000003 0.939258543 44.940378303000003  -0.067527536999999999 0.93751295899999998 44.940444849999999  -0.098952824999999994 0.934184974 44.940442212999997  -0.224653981 0.92087303600000003 44.940431664999998  -0.34257982799999998 0.88329993799999995 44.939300693  -0.448897186 0.82548102499999998 44.939316628999997  -0.50205586400000002 0.79657156900000003 44.939324597000002  -0.55258527400000002 0.76244099200000004 44.939608659999998  -0.59976450699999995 0.72324396199999996 44.939889397000002  -0.62335412300000004 0.70364544600000001 44.940029766000002  -0.64610619599999997 0.68278031699999997 44.940169302999998  -0.66793061200000003 0.66066790799999997 44.940273081000001  -0.68975502700000002 0.638555498 44.940376858999997  -0.71066678500000002 0.61517711600000002 44.940444874000001  -0.73053031899999998 0.590608735 44.940442210999997  -0.80998445399999996 0.492335209 44.94043156  -0.86684076600000004 0.38231747199999999 44.939303131999999  -0.90113111000000001 0.26625006600000001 44.939319910000002  -0.918276282 0.20821636299999999 44.939328298  -0.92986977400000004 0.14836585599999999 44.939611591000002  -0.93551222499999998 0.087301161000000002 44.939891428000003  -0.93833345000000001 0.056768814000000001 44.940031345999998  -0.93966691400000002 0.025932918999999999 44.9401704  -0.93946269800000004 -0.0051311960000000002 44.940273795000003  -0.93925848099999998 -0.036195311000000001 44.94037719  -0.93751387600000002 -0.067511926999999999 44.940444827999997  -0.93418716599999996 -0.098932142000000001 44.940442210999997  -0.92088032500000006 -0.224613004 44.940431742000001  -0.88333603699999996 -0.34249802899999998 44.939346544999999  -0.825467061 -0.44890319899999997 44.939363845000003  -0.79653257300000002 -0.50210578400000005 44.939372495000001  -0.76237430100000003 -0.55265809499999996 44.939644706000003  -0.72317345300000002 -0.59983541200000001 44.939913445999998  -0.70357302899999996 -0.62342407099999997 44.940047815  -0.68271196099999998 -0.64616898099999998 44.940181316999997  -0.66061289899999998 -0.66797955200000003 44.940280569999999  -0.63851383799999994 -0.68979012299999998 44.940379823999997  -0.61515891899999997 -0.71068067899999998 44.940444800000002  -0.59062492700000002 -0.73051722699999999 44.940442210999997  -0.49248895999999998 -0.80986341500000003 44.940431855999996  -0.382459514 -0.86678252300000003 44.939363180999997  -0.26627388600000002 -0.901111938 44.939378431000002  -0.20818107199999999 -0.91827664600000003 44.939386055  -0.148297978 -0.92987265100000005 44.939654599999997  -0.087226864000000001 -0.93551366599999997 44.939919938000003  -0.056691307000000003 -0.93833417299999999 44.940052608000002  -0.025858745999999998 -0.93966593300000001 44.940184475000002  0.0051955389999999999 -0.93946065899999998 44.940282525999997  0.036249824 -0.93925538600000003 44.940380576999999  0.067549487000000005 -0.93751049900000005 44.940444769000003  0.098947564000000002 -0.93418553100000001 44.940442212000001  0.224539869 -0.92088565700000002 44.940431984999996  0.34249454299999998 -0.88333139900000002 44.939380593999999  0.44890613200000001 -0.82545785299999996 44.939397497000002  0.50211192599999999 -0.79652107999999999 44.939405948000001  0.55267578900000003 -0.76235320299999998 44.939669621999997  0.59986240099999999 -0.72314347499999998 44.939929935999999  0.623455706 -0.70353861100000004 44.940060093  0.64620469899999999 -0.68267328500000002 44.940189410000002  0.66801746399999995 -0.66057115300000002 44.940285564  0.68983022800000005 -0.63846902100000003 44.940381717999998  0.71072110300000002 -0.61511200799999999 44.940444604 
 0 3 0.0625 3 0.09375 3 0.109375 3 0.125 3 0.1875 3 0.21875 3 0.234375 3 0.25 3 0.3125 3 0.34375 3 0.359375 3 0.375 3 0.4375 3 0.46875 3 0.484375 3 0.5 3 0.5625 3 0.59375 3 0.609375 3 0.625 3 0.6875 3 0.71875 3 0.734375 3 0.75 3 0.8125 3 0.84375 3 0.859375 3 0.875 3 0.9375 3 0.96875 3 0.984375 3 1 3
6 -0 -0 1 
7 0 1  3 96 33  0.73055472499999996 -0.59057854399999998 44.940442218000001  0.809889215 -0.49244468699999999 44.940432676999997  0.86674110299999996 -0.38253864199999998 44.939430244  0.90109017700000005 -0.26630095300000001 44.939444844999997  0.91826471399999998 -0.208182108 44.939452146000001  0.92986389999999997 -0.14827288999999999 44.939703801999997  0.93550688199999998 -0.087192919999999993 44.939952476999999  0.93832837300000005 -0.056652935000000001 44.940076814000001  0.93966081400000001 -0.025820262 44.940200406000002  0.93945659699999995 0.0052276459999999999 44.940292335999999  0.93925238 0.036275555000000001 44.940384266000002  0.93750902800000002 0.067561569000000002 44.940444661000001  0.93418644100000003 0.098938934000000006 44.940442218999998  0.92089609500000003 0.224448393 44.940432448000003  0.88332375600000002 0.342512441 44.939377964999998  0.82545185700000001 0.44891957500000002 44.939391741999998  0.79651590699999997 0.50212314199999997 44.939398629999999  0.76237955199999996 0.55265731799999995 44.939663584000002  0.72319034999999998 0.59982455000000001 44.939925649999999  0.70359574999999996 0.62340816700000001 44.940056681999998  0.68273793699999996 0.64615004700000001 44.940186992999998  0.66063535900000003 0.66796299699999995 44.940283962000002  0.63853278000000002 0.689775947 44.940380931  0.61516696800000004 0.71067486099999999 44.940444677999999  0.59061232600000002 0.73052741300000001 44.940442220999998  0.49239376200000001 0.80993762199999997 44.940432393999998  0.38236201399999997 0.86682081499999997 44.939327487  0.26626021300000002 0.90112339699999999 44.939342695000001  0.20820931200000001 0.91827468800000001 44.939350298999997  0.14835622300000001 0.92987078300000003 44.939627751000003  0.087290681999999994 0.93551369500000003 44.939902015000001  0.056757912000000001 0.93833515099999998 44.940039147999997  0.025922028999999999 0.93966831100000003 44.940175482999997  -0.0051432509999999997 0.93946342699999996 44.940276892999997  -0.036208530000000003 0.939258543 44.940378303000003  -0.067527536999999999 0.93751295899999998 44.940444849999999  -0.098952824999999994 0.934184974 44.940442212999997  -0.224653981 0.92087303600000003 44.940431664999998  -0.34257982799999998 0.88329993799999995 44.939300693  -0.448897186 0.82548102499999998 44.939316628999997  -0.50205586400000002 0.79657156900000003 44.939324597000002  -0.55258527400000002 0.76244099200000004 44.939608659999998  -0.59976450699999995 0.72324396199999996 44.939889397000002  -0.62335412300000004 0.70364544600000001 44.940029766000002  -0.64610619599999997 0.68278031699999997 44.940169302999998  -0.66793061200000003 0.66066790799999997 44.940273081000001  -0.68975502700000002 0.638555498 44.940376858999997  -0.71066678500000002 0.61517711600000002 44.940444874000001  -0.73053031899999998 0.590608735 44.940442210999997  -0.80998445399999996 0.492335209 44.94043156  -0.86684076600000004 0.38231747199999999 44.939303131999999  -0.90113111000000001 0.26625006600000001 44.939319910000002  -0.918276282 0.20821636299999999 44.939328298  -0.92986977400000004 0.14836585599999999 44.939611591000002  -0.93551222499999998 0.087301161000000002 44.939891428000003  -0.93833345000000001 0.056768814000000001 44.940031345999998  -0.93966691400000002 0.025932918999999999 44.9401704  -0.93946269800000004 -0.0051311960000000002 44.940273795000003  -0.93925848099999998 -0.036195311000000001 44.94037719  -0.93751387600000002 -0.067511926999999999 44.940444827999997  -0.93418716599999996 -0.098932142000000001 44.940442210999997  -0.92088032500000006 -0.224613004 44.940431742000001  -0.88333603699999996 -0.34249802899999998 44.939346544999999  -0.825467061 -0.44890319899999997 44.939363845000003  -0.79653257300000002 -0.50210578400000005 44.939372495000001  -0.76237430100000003 -0.55265809499999996 44.939644706000003  -0.72317345300000002 -0.59983541200000001 44.939913445999998  -0.70357302899999996 -0.62342407099999997 44.940047815  -0.68271196099999998 -0.64616898099999998 44.940181316999997  -0.66061289899999998 -0.66797955200000003 44.940280569999999  -0.63851383799999994 -0.68979012299999998 44.940379823999997  -0.61515891899999997 -0.71068067899999998 44.940444800000002  -0.59062492700000002 -0.73051722699999999 44.940442210999997  -0.49248895999999998 -0.80986341500000003 44.940431855999996  -0.382459514 -0.86678252300000003 44.939363180999997  -0.26627388600000002 -0.901111938 44.939378431000002  -0.20818107199999999 -0.91827664600000003 44.939386055  -0.148297978 -0.92987265100000005 44.939654599999997  -0.087226864000000001 -0.93551366599999997 44.939919938000003  -0.056691307000000003 -0.93833417299999999 44.940052608000002  -0.025858745999999998 -0.93966593300000001 44.940184475000002  0.0051955389999999999 -0.93946065899999998 44.940282525999997  0.036249824 -0.93925538600000003 44.940380576999999  0.067549487000000005 -0.93751049900000005 44.940444769000003  0.098947564000000002 -0.93418553100000001 44.940442212000001  0.224539869 -0.92088565700000002 44.940431984999996  0.34249454299999998 -0.88333139900000002 44.939380593999999  0.44890613200000001 -0.82545785299999996 44.939397497000002  0.50211192599999999 -0.79652107999999999 44.939405948000001  0.55267578900000003 -0.76235320299999998 44.939669621999997  0.59986240099999999 -0.72314347499999998 44.939929935999999  0.623455706 -0.70353861100000004 44.940060093  0.64620469899999999 -0.68267328500000002 44.940189410000002  0.66801746399999995 -0.66057115300000002 44.940285564  0.68983022800000005 -0.63846902100000003 44.940381717999998  0.71072110300000002 -0.61511200799999999 44.940444604 
 0 3 0.0625 3 0.09375 3 0.109375 3 0.125 3 0.1875 3 0.21875 3 0.234375 3 0.25 3 0.3125 3 0.34375 3 0.359375 3 0.375 3 0.4375 3 0.46875 3 0.484375 3 0.5 3 0.5625 3 0.59375 3 0.609375 3 0.625 3 0.6875 3 0.71875 3 0.734375 3 0.75 3 0.8125 3 0.84375 3 0.859375 3 0.875 3 0.9375 3 0.96875 3 0.984375 3 1 3
1 -0.22946020633741637 -0.2833672366431263 34.940116798917479 -0.00036878413718796909 -0.00044204635058059469 0.99999983429662842 2.6469779601696886e-23 0.99999990229749403 0.00044204638064013419 -0.99999993199912773 1.6301969308143646e-07 -0.00036878410115683463 
Triangulations 0

TShapes 21
Ve
0.000422120271669863
-0.541587719 0.43965944 45.39
0 0

0101101
*
Ed
 0.000422120271669863 1 1 0
1  1 0 0 0.004366721
2  1 2 0 0 0.004366721
4 C0 2 0 3 0
2  2 1 0 0 0.004366721
0

0101100
+21 0 -21 0 *
Ve
0.0014460803188925
-0.729363734 0.592048783 44.940442286
0 0

0101101
*
Ed
 1e-07 1 1 0
1  2 0 0.116637183 0.67301455
3  3 4C2 2 0 0.116637183 0.67301455
3  5 6C0 1 0 0.116637183 0.67301455
0

0101000
+21 0 -19 0 *
Ve
0.0014460803188925
0.729941179 -0.591335923 44.940442188
0 0

0101101
*
Ed
 0.0014460803188925 1 1 0
1  3 0 0.999839068451696 1.4996944298067
2  7 2 0 0.999839068451696 1.4996944298067
2  8 4 0 0.999839068451696 1.4996944298067
4 C0 2 0 4 0
2  9 1 0 0.999839068451696 1.4996944298067
2  10 5 0 0.999839068451696 1.4996944298067
2  11 5 2 0.999839068451696 1.4996944298067
0

0101000
+17 0 -19 0 *
Ed
 0.00117267222369592 1 1 0
1  4 0 0.499694429806697 0.999839068451696
2  12 2 0 0.499694429806697 0.999839068451696
2  13 4 0 0.499694429806697 0.999839068451696
4 C0 2 0 4 0
2  14 1 0 0.499694429806697 0.999839068451696
2  15 6 0 0.499694429806697 0.999839068451696
2  16 6 2 0.499694429806697 0.999839068451696
0

0101000
+19 0 -17 0 *
Wi

0101100
-20 0 +18 0 -16 0 -15 0 -18 0 *
Fa
0  1e-07 1 0

0111000
+14 0 *
Wi

0101100
-20 0 *
Fa
0  1e-07 3 0

0111000
+12 0 *
Ed
 0.00117267222369592 1 1 0
1  5 0 0 10
2  17 5 0 0 10
2  18 6 0 0 10
0

0101000
+17 0 -17 1 *
Ed
 0.00117267222369592 1 1 0
1  6 0 0 10
2  19 5 0 0 10
2  20 6 0 0 10
0

0101000
+19 0 -19 1 *
Wi

0101100
+10 0 -9 0 -16 0 +16 1 *
Fa
0  0.00114085194023099 5 0

0101000
+8 0 *
Wi

0101100
+9 0 -10 0 -15 0 +15 1 *
Fa
0  0.00117267222369592 6 0

0101000
+6 0 *
Wi

0101100
+16 0 +15 0 *
Fa
0  1e-07 7 0

0111000
+4 1 *
Sh

0101100
-13 0 +11 0 +7 0 +5 0 -3 0 *
So

1100000
+2 0 *

+1 0 